PathFileType	4	(X/Y/Z)	/Users/itak/Documents/Research/Walk-IL/dataset/trc/00388_00012.trc
DataRate	CameraRate	NumFrames	NumMarkers	Units	OrigDataRate	OrigDataStartFrame	OrigNumFrames
100.000000	100.000000	4	53	mm	100.000000	152	610
Frame#	Time	RPSI			LPSI			L3			STRN			T10			C7			CLAV			RBAK			LBAK			LSHO			LUPA			LAEL			LAOL			LWTS			LWPS			LFRA			LIFD			LHPS			LHTS			RSHO			RUPA			RAEL			RAOL			RWTS			RWPS			RFRA			RIFD			RHTS			RHPS			RBHD			LFHD			RFHD			LBHD			LHIP			RHIP			RASI			LKNE			LTHI			LANK			LTIP			LTOE			LMT5			LHEE			RKNE			RTHI			RANK			RTIP			RTOE			RMT1			RMT5			RHEE			LASI			LMT1			
		X1	Y1	Z1	X2	Y2	Z2	X3	Y3	Z3	X4	Y4	Z4	X5	Y5	Z5	X6	Y6	Z6	X7	Y7	Z7	X8	Y8	Z8	X9	Y9	Z9	X10	Y10	Z10	X11	Y11	Z11	X12	Y12	Z12	X13	Y13	Z13	X14	Y14	Z14	X15	Y15	Z15	X16	Y16	Z16	X17	Y17	Z17	X18	Y18	Z18	X19	Y19	Z19	X20	Y20	Z20	X21	Y21	Z21	X22	Y22	Z22	X23	Y23	Z23	X24	Y24	Z24	X25	Y25	Z25	X26	Y26	Z26	X27	Y27	Z27	X28	Y28	Z28	X29	Y29	Z29	X30	Y30	Z30	X31	Y31	Z31	X32	Y32	Z32	X33	Y33	Z33	X34	Y34	Z34	X35	Y35	Z35	X36	Y36	Z36	X37	Y37	Z37	X38	Y38	Z38	X39	Y39	Z39	X40	Y40	Z40	X41	Y41	Z41	X42	Y42	Z42	X43	Y43	Z43	X44	Y44	Z44	X45	Y45	Z45	X46	Y46	Z46	X47	Y47	Z47	X48	Y48	Z48	X49	Y49	Z49	X50	Y50	Z50	X51	Y51	Z51	X52	Y52	Z52	X53	Y53	Z53	

153	1.52	928.1351928710938	979.5744018554688	-25.04233932495117	921.7011108398438	971.9260864257812	-155.8941497802734	926.9215087890625	1047.213745117188	-88.78018188476562	1163.788330078125	1210.473022460938	-83.87100219726562	921.5142211914062	1149.918090820312	-91.87484741210938	946.9451293945312	1400.754638671875	-102.199821472168	1105.894653320312	1327.866333007812	-88.52671813964844	911.4242553710938	1251.708618164062	-34.51210784912109	939.3458251953125	1361.130615234375	-207.3667907714844	1030.803955078125	1377.4541015625	-253.1540222167969	1021.592956542969	1258.007080078125	-321.5963745117188	1061.86474609375	1061.536865234375	-335.8665771484375	991.9363403320312	1038.614379882812	-292.1851501464844	1149.552124023438	855.2293090820312	-252.7459869384766	1125.915405273438	834.6961059570312	-328.6997375488281	1089.52587890625	958.231689453125	-335.5610961914062	1159.141235351562	673.8050537109375	-244.9660491943359	1141.982543945312	751.8440551757812	-312.1505126953125	1179.741821289062	760.8150024414062	-261.0986328125	1003.512451171875	1381.334350585938	62.17951965332031	992.1116333007812	1315.407104492188	121.0112152099609	1008.355712890625	1052.973266601562	153.8321380615234	992.9035034179688	1043.180541992188	61.86968231201172	1145.179565429688	842.9595336914062	124.4970397949219	1103.259765625	828.8761596679688	183.3702697753906	1036.681518554688	988.0257568359375	168.8992462158203	1156.903686523438	671.0413818359375	126.6794357299805	1169.184326171875	740.1541748046875	144.1963806152344	1110.952880859375	739.8490600585938	181.0454864501953	981.2935791015625	1592.640380859375	-15.80594730377197	1132.11669921875	1598.004760742188	-149.0137176513672	1114.330322265625	1602.269653320312	-25.5278205871582	985.2632446289062	1583.152221679688	-176.6200714111328	1006.378662109375	959.3538208007812	-269.538818359375	1015.073059082031	954.2343139648438	90.89768218994141	1144.608764648438	964.904296875	34.83759307861328	1051.927124023438	466.6489562988281	-248.240966796875	1045.970092773438	609.7149047851562	-260.2730712890625	956.2529296875	32.12961578369141	-210.4121551513672	1000.882202148438	236.0557861328125	-241.6556701660156	1171.440551757812	31.62985992431641	-140.6949768066406	1084.360717773438	31.01373863220215	-217.4163208007812	916.3102416992188	29.01519012451172	-155.0630950927734	1040.70703125	466.666015625	66.62433624267578	1087.68115234375	728.5225219726562	89.78267669677734	993.1268920898438	45.94940948486328	26.64370918273926	1047.738891601562	341.2639770507812	50.41150283813477	1171.605346679688	30.02693939208984	-40.90312194824219	1096.508056640625	34.11110305786133	-67.60674285888672	1078.366943359375	39.80049896240234	29.79866218566895	919.4403076171875	30.76424026489258	-26.42344284057617	1127.289672851562	959.9387817382812	-229.2643127441406	1088.670043945312	35.222412109375	-112.7486114501953	
154	1.53	928.0988159179688	979.5414428710938	-24.9697437286377	921.6280517578125	971.9523315429688	-155.8402862548828	926.750244140625	1047.25048828125	-88.73183441162109	1163.696411132812	1210.484008789062	-83.80384826660156	921.4241943359375	1149.905639648438	-91.80591583251953	946.8226928710938	1400.744750976562	-102.0750350952148	1105.779541015625	1327.8583984375	-88.39656066894531	911.7283325195312	1251.682250976562	-34.32611083984375	939.251708984375	1361.131713867188	-207.2798309326172	1030.70458984375	1377.496704101562	-253.0647583007812	1021.478576660156	1258.051879882812	-321.4888610839844	1061.796997070312	1061.544067382812	-335.7989501953125	991.7159423828125	1038.721557617188	-292.0715942382812	1149.482177734375	855.2252807617188	-252.6985168457031	1125.831420898438	834.7149658203125	-328.6615295410156	1089.450317382812	958.246337890625	-335.509521484375	1159.05322265625	673.8082275390625	-244.9648895263672	1141.910888671875	751.8592529296875	-312.1359252929688	1179.729736328125	760.9945678710938	-261.1820068359375	1003.381469726562	1381.322509765625	62.25267791748047	992.0811767578125	1315.385864257812	121.1444931030273	1008.244506835938	1052.950561523438	153.9042205810547	992.83251953125	1043.1630859375	61.9753303527832	1145.0908203125	842.9427490234375	124.5438613891602	1103.072631835938	828.8595581054688	183.4013366699219	1036.588256835938	988.0076293945312	168.9580993652344	1156.84228515625	671.03759765625	126.7360153198242	1169.0712890625	740.0673828125	144.2831726074219	1110.944213867188	739.8518676757812	181.1263122558594	981.1520385742188	1592.659301757812	-15.77871608734131	1131.819091796875	1598.007568359375	-149.0612335205078	1114.213989257812	1602.428100585938	-25.7374153137207	984.9500732421875	1582.998413085938	-176.6089935302734	1006.151245117188	959.4153442382812	-269.4655151367188	1014.978149414062	954.2169189453125	90.94797515869141	1144.510864257812	964.9028930664062	34.92843627929688	1051.901123046875	466.6522827148438	-248.1981811523438	1045.951416015625	609.7166748046875	-260.2358703613281	956.2514038085938	32.13245010375977	-210.4155578613281	1000.853515625	236.0513153076172	-241.6299133300781	1171.427612304688	31.62362861633301	-140.6812438964844	1084.361450195312	31.01718902587891	-217.4104766845703	916.3130493164062	29.01866340637207	-155.0608673095703	1040.651611328125	466.6625061035156	66.64743041992188	1087.616088867188	728.5159301757812	89.82277679443359	993.1238403320312	45.94720840454102	26.64197540283203	1047.71337890625	341.2619323730469	50.43008041381836	1171.60205078125	30.03275871276855	-40.89910507202148	1096.504760742188	34.11254119873047	-67.60701751708984	1078.3681640625	39.80126953125	29.79596138000488	919.4383544921875	30.76519775390625	-26.42122077941895	1127.225463867188	959.9239501953125	-229.1893920898438	1088.669189453125	35.22474670410156	-112.7476043701172	
155	1.54	928.0838623046875	979.5027465820312	-24.88328170776367	921.55029296875	971.9794921875	-155.788330078125	926.648681640625	1047.289672851562	-88.67120361328125	1163.602416992188	1210.493774414062	-83.73445129394531	921.28515625	1149.901000976562	-91.7247314453125	946.6917114257812	1400.73291015625	-101.9585418701172	1105.667602539062	1327.843872070312	-88.26747131347656	911.943359375	1251.66650390625	-34.15378952026367	939.1592407226562	1361.131591796875	-207.1933441162109	1030.604125976562	1377.53369140625	-252.9815216064453	1021.367858886719	1258.097412109375	-321.3857116699219	1061.729614257812	1061.551025390625	-335.7337951660156	991.5228881835938	1038.797119140625	-291.9848022460938	1149.40966796875	855.2167358398438	-252.6440887451172	1125.736450195312	834.7279052734375	-328.6175842285156	1089.369995117188	958.25439453125	-335.4502563476562	1158.998779296875	673.8225708007812	-244.9461364746094	1141.827514648438	751.8733520507812	-312.1198425292969	1179.685180664062	761.1159057617188	-261.2237243652344	1003.268188476562	1381.315551757812	62.33230972290039	992.059814453125	1315.363891601562	121.2698516845703	1008.132568359375	1052.931274414062	153.9790802001953	992.7427978515625	1043.147094726562	62.08266448974609	1145.006591796875	842.929443359375	124.5825576782227	1102.879638671875	828.8493041992188	183.4208679199219	1036.500732421875	987.9920043945312	169.0080871582031	1156.77099609375	671.0330810546875	126.771858215332	1168.97705078125	739.9757080078125	144.3592224121094	1110.931762695312	739.85107421875	181.1987152099609	981.0050659179688	1592.672729492188	-15.75363826751709	1131.517822265625	1598.002075195312	-149.0804595947266	1114.101318359375	1602.568359375	-25.91086196899414	984.6599731445312	1582.843383789062	-176.5968170166016	1005.9580078125	959.4639282226562	-269.3988952636719	1014.875427246094	954.1995849609375	90.99655151367188	1144.421020507812	964.9064331054688	35.02226257324219	1051.875854492188	466.6554565429688	-248.1542510986328	1045.934936523438	609.7213745117188	-260.1977233886719	956.2495727539062	32.13601303100586	-210.4164428710938	1000.826782226562	236.0467224121094	-241.6024017333984	1171.412231445312	31.61102485656738	-140.6625671386719	1084.361694335938	31.01930809020996	-217.4080047607422	916.3160400390625	29.02180290222168	-155.0587005615234	1040.606567382812	466.6605224609375	66.67628479003906	1087.526000976562	728.4963989257812	89.83988189697266	993.1237182617188	45.94654083251953	26.63772773742676	1047.689086914062	341.2602233886719	50.44636154174805	1171.599853515625	30.03674507141113	-40.89625930786133	1096.501586914062	34.11420440673828	-67.60662078857422	1078.370849609375	39.80524826049805	29.79132652282715	919.4077758789062	30.77683067321777	-26.42614364624023	1127.159301757812	959.9075317382812	-229.1097869873047	1088.66796875	35.22513580322266	-112.745849609375	
156	1.55	928.0762939453125	979.4617919921875	-24.78994178771973	921.46826171875	972.0050659179688	-155.7366638183594	926.6159057617188	1047.327026367188	-88.59934997558594	1163.505249023438	1210.5029296875	-83.66219329833984	921.0967407226562	1149.902465820312	-91.63368988037109	946.552978515625	1400.721435546875	-101.8554458618164	1105.560668945312	1327.825927734375	-88.14411926269531	912.054931640625	1251.653930664062	-33.99902725219727	939.068359375	1361.130615234375	-207.1081390380859	1030.498901367188	1377.5595703125	-252.9006805419922	1021.262084960938	1258.141967773438	-321.2887268066406	1061.66162109375	1061.557983398438	-335.6685791015625	991.3633422851562	1038.844604492188	-291.91943359375	1149.3349609375	855.2037353515625	-252.5822906494141	1125.632202148438	834.7367553710938	-328.566162109375	1089.282348632812	958.2537841796875	-335.3801574707031	1158.983642578125	673.85986328125	-244.9117126464844	1141.732421875	751.8873291015625	-312.1006469726562	1179.603515625	761.1694946289062	-261.217041015625	1003.166809082031	1381.314697265625	62.41775894165039	992.0442504882812	1315.342895507812	121.3860626220703	1008.020568847656	1052.915893554688	154.0539093017578	992.6353149414062	1043.1318359375	62.189697265625	1144.927368164062	842.9204711914062	124.6173706054688	1102.691040039062	828.8446655273438	183.431884765625	1036.41552734375	987.979736328125	169.0487060546875	1156.691772460938	671.0287475585938	126.7886810302734	1168.903442382812	739.8954467773438	144.4166107177734	1110.917358398438	739.8485717773438	181.2628784179688	980.846435546875	1592.681640625	-15.73052024841309	1131.21875	1597.9921875	-149.0825500488281	1113.989013671875	1602.693725585938	-26.04372406005859	984.3966674804688	1582.693115234375	-176.5851593017578	1005.811157226562	959.49853515625	-269.3380432128906	1014.776428222656	954.1881713867188	91.04560852050781	1144.341796875	964.9159545898438	35.11598968505859	1051.851806640625	466.6586608886719	-248.1084289550781	1045.919311523438	609.7296752929688	-260.1572570800781	956.2471923828125	32.13999176025391	-210.4139709472656	1000.804565429688	236.0453796386719	-241.5736541748047	1171.399047851562	31.59802436828613	-140.6438293457031	1084.361694335938	31.01946258544922	-217.4080963134766	916.31884765625	29.02401161193848	-155.0567626953125	1040.57177734375	466.6598205566406	66.71064758300781	1087.411865234375	728.4598999023438	89.84468078613281	993.1244506835938	45.94648361206055	26.63190269470215	1047.665405273438	341.2586669921875	50.46084213256836	1171.5986328125	30.03935432434082	-40.89468002319336	1096.498901367188	34.11589050292969	-67.60569000244141	1078.37451171875	39.81021499633789	29.78668785095215	919.359130859375	30.79402923583984	-26.43618774414062	1127.091430664062	959.8937377929688	-229.0264739990234	1088.666137695312	35.2232780456543	-112.7431564331055	
